<?xml version="1.0" standalone="no"?>
<!DOCTYPE svg PUBLIC "-//W3C//DTD SVG 20010904//EN"
 "http://www.w3.org/TR/2001/REC-SVG-20010904/DTD/svg10.dtd">
<svg version="1.0" xmlns="http://www.w3.org/2000/svg"
 width="1280.000000pt" height="1280.000000pt" viewBox="0 0 1280.000000 1280.000000"
 preserveAspectRatio="xMidYMid meet">
<metadata>
Created by potrace 1.16, written by Peter Selinger 2001-2019
</metadata>
<g transform="translate(0.000000,1280.000000) scale(0.100000,-0.100000)"
fill="#49B074" stroke="none">
<path d="M4465 11573 c-73 -7 -199 -35 -270 -60 -84 -30 -229 -105 -270 -140
-16 -14 -23 -22 -15 -17 13 7 13 5 1 -9 -15 -19 -26 -23 -15 -6 27 45 -114
-78 -177 -154 -27 -33 -46 -64 -42 -69 3 -6 1 -8 -5 -4 -12 7 -69 -79 -116
-179 -40 -83 -80 -204 -72 -212 3 -3 2 -11 -3 -17 -13 -16 -31 -143 -31 -215
l0 -60 -1117 -4 c-1106 -3 -1119 -3 -1203 -25 -171 -43 -299 -95 -420 -169
-102 -63 -151 -103 -144 -115 5 -7 2 -8 -6 -3 -14 9 -193 -163 -184 -177 3 -5
2 -7 -3 -6 -18 6 -117 -124 -105 -137 4 -5 2 -5 -4 -2 -13 7 -57 -66 -46 -78
4 -5 2 -5 -4 -2 -15 8 -98 -162 -139 -286 -18 -56 -42 -145 -52 -197 -17 -90
-18 -245 -21 -3155 -2 -2030 1 -3111 7 -3210 11 -158 39 -295 86 -422 16 -43
31 -70 38 -66 6 3 7 1 3 -5 -8 -13 34 -103 46 -96 4 3 6 -1 3 -8 -6 -16 66
-127 143 -221 58 -71 211 -216 219 -207 2 3 9 -3 14 -12 12 -21 153 -115 236
-157 155 -78 345 -135 485 -147 43 -4 78 -10 78 -13 0 -3 2270 -6 5045 -6
2775 0 5045 3 5045 6 0 3 36 9 79 13 210 17 497 129 665 258 93 72 166 140
159 150 -3 6 -1 8 5 4 13 -8 125 122 190 219 107 160 193 373 229 567 17 87
18 280 18 3243 0 3385 3 3213 -51 3414 -43 159 -171 420 -203 413 -7 -1 -10 2
-6 8 18 30 -255 308 -390 398 -139 93 -289 157 -480 206 -78 19 -113 20 -1202
23 l-1123 4 0 58 c0 185 -75 421 -188 591 -59 90 -166 205 -182 195 -6 -3 -9
-1 -8 6 8 34 -206 171 -351 225 -197 74 -15 68 -2171 70 -1064 0 -1953 -1
-1975 -3z m3949 -653 c112 -42 212 -142 257 -258 22 -54 22 -68 20 -304 -2
-174 0 -248 8 -248 6 0 11 -15 11 -32 0 -18 13 -60 28 -93 30 -63 105 -141
124 -129 6 4 8 3 5 -3 -4 -6 12 -19 36 -29 40 -18 103 -19 1322 -24 l1280 -5
80 -23 c91 -26 195 -76 261 -127 26 -19 51 -32 57 -28 5 3 7 1 4 -4 -4 -6 16
-31 43 -57 27 -25 47 -46 45 -46 -3 0 11 -21 31 -47 47 -62 88 -145 116 -235
l23 -73 3 -3080 c2 -2146 0 -3109 -8 -3175 -27 -238 -99 -391 -253 -536 -115
-108 -228 -167 -379 -198 -70 -14 -567 -16 -5127 -16 -4625 0 -5056 1 -5128
16 -43 9 -88 17 -100 18 -12 0 -20 3 -17 5 2 2 -24 17 -58 33 -121 57 -249
167 -326 280 -43 62 -85 157 -108 243 -18 68 -19 164 -19 3210 0 1727 3 3163
6 3191 3 28 8 55 11 60 3 5 11 27 18 49 7 22 31 76 54 120 22 44 39 84 38 90
-2 5 -1 7 3 3 4 -4 29 20 57 53 66 80 145 140 250 194 88 44 222 81 258 72 11
-3 20 -1 20 4 0 5 505 9 1240 9 1230 0 1240 0 1295 21 62 23 118 65 108 81 -3
6 -1 8 5 4 13 -8 55 45 79 100 14 32 18 88 25 319 8 307 9 315 20 315 4 0 8 7
8 14 0 8 15 41 34 74 58 99 160 178 262 204 40 10 434 13 1986 11 l1936 -2 56
-21z"/>
<path d="M10587 8955 c-217 -60 -388 -238 -432 -450 -8 -38 -15 -93 -15 -121
0 -172 89 -354 230 -466 28 -22 55 -36 61 -32 8 4 9 3 5 -4 -6 -11 -2 -13 19
-12 3 1 13 -6 21 -15 8 -8 48 -25 87 -37 108 -34 245 -32 354 5 331 113 492
478 353 802 -13 30 -24 44 -31 39 -8 -4 -9 -3 -5 4 10 16 -12 54 -26 46 -6 -4
-8 -3 -4 4 8 14 -43 74 -56 65 -6 -3 -8 -1 -4 5 9 15 -78 86 -149 122 -33 16
-87 36 -120 45 -72 18 -222 18 -288 0z"/>
<path d="M6125 8949 c-157 -15 -467 -74 -534 -101 -14 -6 -29 -11 -33 -10 -4
1 -60 -17 -125 -39 -405 -139 -778 -365 -1082 -655 -148 -141 -273 -282 -264
-297 3 -5 1 -7 -4 -4 -19 12 -229 -285 -217 -305 4 -7 3 -8 -4 -4 -13 8 -45
-47 -34 -59 4 -5 2 -6 -3 -2 -13 7 -114 -183 -175 -328 -54 -127 -113 -302
-146 -429 -29 -113 -74 -371 -74 -422 0 -19 -3 -34 -7 -34 -5 0 -7 -31 -5 -70
2 -38 0 -70 -5 -70 -4 0 -8 -65 -8 -145 0 -80 3 -145 6 -145 3 0 9 -46 13
-103 23 -353 138 -761 311 -1101 75 -147 89 -169 100 -158 5 4 5 1 1 -6 -5 -7
6 -34 27 -65 18 -29 42 -66 52 -84 10 -18 23 -29 28 -26 6 3 7 2 4 -4 -11 -17
142 -212 308 -391 119 -130 391 -349 568 -459 435 -269 1007 -443 1459 -443
59 0 98 -4 98 -10 0 -5 9 -10 20 -10 11 0 20 5 20 10 0 6 38 10 93 10 259 0
601 67 922 181 150 53 459 205 449 221 -4 7 -3 8 5 4 7 -5 50 16 104 50 117
73 138 90 129 99 -4 5 -2 5 5 1 25 -14 331 253 509 444 106 114 279 354 268
372 -4 6 -3 8 3 5 19 -12 201 313 187 334 -4 7 -3 9 3 6 17 -11 118 240 172
429 60 205 111 505 111 644 0 27 3 50 8 50 4 0 7 65 7 145 0 80 -4 145 -8 145
-5 0 -7 29 -5 65 1 36 0 65 -4 65 -5 0 -8 15 -8 33 0 17 -7 76 -15 130 -82
548 -325 1081 -680 1495 -139 162 -432 437 -458 429 -5 -1 -13 6 -18 15 -12
22 -234 170 -355 236 -186 102 -578 263 -604 247 -5 -3 -11 -1 -14 4 -15 23
-375 93 -566 111 -132 11 -404 11 -535 -1z m625 -673 c134 -21 345 -77 469
-123 92 -34 281 -123 349 -165 17 -11 32 -16 32 -11 0 4 4 3 8 -3 11 -16 165
-117 179 -117 7 0 10 -4 7 -9 -3 -4 0 -9 5 -9 6 -1 17 -2 24 -3 6 0 12 -6 12
-12 0 -6 25 -31 55 -54 86 -67 289 -276 368 -378 136 -178 264 -409 340 -617
63 -174 132 -476 119 -526 -3 -10 0 -19 5 -19 7 0 9 -21 6 -55 -3 -30 -1 -55
4 -55 4 0 8 -83 8 -185 0 -102 -3 -185 -7 -185 -5 0 -9 -33 -10 -73 -4 -185
-99 -512 -221 -757 -42 -85 -75 -159 -73 -165 1 -5 0 -7 -4 -3 -4 3 -36 -37
-72 -90 -36 -54 -81 -116 -100 -139 -19 -24 -31 -48 -27 -54 4 -7 3 -9 -3 -6
-15 9 -75 -61 -67 -76 4 -7 4 -9 -1 -5 -5 5 -51 -34 -104 -85 -373 -360 -847
-591 -1354 -657 -49 -7 -102 -10 -118 -8 -16 3 -29 1 -29 -4 0 -4 -67 -8 -150
-8 -82 0 -150 4 -150 8 0 4 -15 6 -34 4 -48 -6 -241 24 -376 58 -98 24 -176
50 -345 113 -16 6 -79 36 -140 66 -60 31 -116 55 -122 54 -7 0 -11 2 -9 6 3 4
-31 29 -75 55 -101 62 -234 161 -325 242 -39 35 -73 62 -75 61 -2 -1 -3 0 -1
2 5 10 -92 100 -101 94 -6 -3 -7 -1 -4 4 4 6 -19 42 -51 79 -56 68 -205 283
-231 336 -8 15 -19 25 -24 21 -6 -3 -7 -1 -3 5 4 6 -12 48 -35 94 -57 112
-123 290 -159 423 -35 130 -64 298 -57 325 3 10 0 21 -5 22 -14 5 -25 438 -11
438 6 0 8 11 6 24 -7 34 13 180 43 316 41 182 98 341 192 530 47 96 85 179 83
185 -1 5 0 7 4 3 4 -4 34 35 67 85 34 51 71 105 84 120 13 16 22 33 18 38 -3
5 -2 8 3 7 5 -2 45 38 89 87 44 50 116 123 160 164 43 41 78 78 76 83 -1 5 1
7 6 4 5 -3 44 22 88 55 206 158 489 301 741 374 137 40 330 76 415 78 43 1 78
6 78 11 0 14 414 0 530 -18z"/>
</g>
</svg>
