<?xml version="1.0" standalone="no"?>
<!DOCTYPE svg PUBLIC "-//W3C//DTD SVG 20010904//EN"
 "http://www.w3.org/TR/2001/REC-SVG-20010904/DTD/svg10.dtd">
<svg version="1.0" xmlns="http://www.w3.org/2000/svg"
 width="1280.000000pt" height="1280.000000pt" viewBox="0 0 1280.000000 1280.000000"
 preserveAspectRatio="xMidYMid meet">
<metadata>
Created by potrace 1.16, written by Peter Selinger 2001-2019
</metadata>
<g transform="translate(0.000000,1280.000000) scale(0.100000,-0.100000)"
fill="#49B074" stroke="none">
<path d="M6360 12159 c0 -7 -51 -9 -160 -7 -88 2 -160 1 -160 -2 0 -3 -76 -11
-169 -18 -198 -15 -515 -59 -721 -101 -159 -32 -439 -100 -455 -109 -5 -3 -16
-7 -25 -7 -29 -3 -327 -98 -470 -151 -195 -73 -439 -177 -434 -186 3 -4 -1 -6
-8 -3 -19 6 -444 -210 -440 -225 1 -6 -2 -9 -8 -5 -14 9 -161 -76 -153 -88 3
-6 1 -7 -5 -3 -10 6 -82 -35 -224 -126 -26 -17 -45 -35 -41 -41 3 -6 1 -7 -5
-3 -12 7 -126 -67 -117 -76 3 -3 -1 -5 -9 -5 -22 0 -216 -145 -209 -156 3 -6
1 -7 -5 -3 -26 16 -591 -471 -575 -497 3 -6 1 -7 -5 -3 -19 11 -291 -272 -493
-515 -100 -119 -223 -279 -216 -279 3 0 -10 -16 -29 -37 -18 -20 -31 -39 -29
-44 3 -4 -2 -10 -11 -13 -9 -4 -14 -13 -10 -22 3 -8 2 -13 -3 -10 -14 9 -183
-246 -323 -489 -442 -767 -729 -1655 -809 -2505 -7 -74 -15 -137 -18 -140 -10
-8 -10 -96 -17 -1798 -4 -1105 -2 -1675 5 -1765 11 -135 34 -249 72 -347 33
-83 111 -220 122 -213 6 3 7 1 4 -5 -26 -41 331 -366 381 -347 7 2 10 0 7 -5
-7 -11 72 -49 179 -86 87 -30 212 -54 282 -54 30 0 54 -5 54 -10 0 -7 68 -9
198 -8 l197 3 0 1880 0 1880 -198 3 c-133 2 -196 -1 -192 -8 4 -6 -15 -10 -53
-10 -68 0 -187 -23 -261 -49 -52 -20 -69 -17 -49 6 8 10 9 110 5 382 -4 202
-4 371 0 374 3 4 5 36 4 72 -1 36 1 65 6 65 5 0 7 17 5 38 -8 78 68 563 119
766 11 43 18 85 15 93 -3 8 -1 11 4 8 6 -3 10 1 10 9 0 23 63 242 105 366 19
58 35 105 34 105 0 0 5 14 11 30 7 17 25 65 41 108 100 270 278 636 431 885
21 35 35 69 32 75 -4 7 -4 9 1 5 4 -4 51 56 103 135 52 78 122 180 156 226 33
45 60 88 58 95 -2 6 -1 8 3 4 4 -3 36 30 73 75 199 248 474 537 684 721 37 33
65 63 61 69 -3 6 -1 7 5 4 15 -10 206 145 194 158 -4 4 -2 5 3 4 18 -6 56 21
49 34 -4 7 -4 9 1 5 10 -9 47 10 41 21 -3 4 0 8 7 8 7 0 62 35 122 78 425 304
935 564 1450 742 379 130 998 261 1262 266 46 1 83 6 83 10 0 5 32 7 70 5 39
-2 70 0 70 3 0 3 149 5 330 5 182 0 330 -2 330 -5 0 -3 31 -5 70 -3 38 2 70 0
70 -5 0 -4 38 -9 83 -10 154 -3 505 -61 787 -130 80 -19 152 -36 160 -38 8 -1
22 -5 30 -8 8 -4 69 -23 135 -43 364 -109 809 -303 1155 -504 69 -40 130 -73
137 -73 7 0 10 -4 7 -9 -3 -4 -1 -8 3 -8 5 0 66 -38 137 -85 71 -47 132 -82
137 -79 5 3 8 1 7 -5 -4 -13 173 -142 185 -134 6 3 7 1 4 -4 -4 -6 17 -29 46
-50 222 -168 584 -509 769 -724 56 -65 106 -115 111 -112 6 3 7 1 4 -4 -8 -12
71 -115 82 -108 4 2 8 -2 8 -9 0 -7 33 -57 74 -112 98 -130 174 -239 241 -346
31 -48 59 -84 63 -80 5 4 6 2 2 -3 -7 -14 88 -177 98 -167 5 4 6 2 2 -3 -8
-15 67 -147 78 -138 4 5 5 3 2 -4 -4 -6 24 -74 62 -150 78 -158 147 -313 202
-458 20 -55 43 -113 50 -130 7 -16 13 -35 15 -42 4 -21 66 -207 73 -218 3 -5
6 -17 8 -25 1 -8 22 -94 47 -190 25 -96 59 -242 75 -325 38 -186 84 -526 79
-577 -2 -21 0 -38 5 -38 5 0 7 -32 5 -70 -2 -39 0 -70 5 -70 4 0 4 -166 0
-370 -4 -272 -3 -373 5 -383 19 -22 3 -27 -35 -10 -59 24 -204 53 -271 53 -40
0 -61 4 -57 10 4 7 -59 10 -192 8 l-198 -3 0 -1880 0 -1880 198 -3 c129 -1
197 1 197 8 0 6 25 10 56 10 84 0 240 35 346 78 332 133 579 417 668 767 40
155 42 273 36 1977 -7 1701 -7 1790 -17 1798 -3 3 -11 64 -18 135 -27 289 -86
619 -162 918 -52 204 -128 451 -140 455 -5 2 -7 7 -4 12 7 11 -93 280 -172
465 -54 125 -111 242 -231 480 -114 224 -404 681 -425 668 -6 -3 -7 -1 -3 6
12 19 -192 285 -412 541 -120 138 -363 381 -374 374 -6 -4 -8 -2 -5 4 17 27
-598 552 -627 535 -6 -3 -8 -3 -4 2 13 14 -265 210 -283 199 -7 -4 -9 -3 -5 4
8 13 -251 175 -266 166 -6 -4 -8 -3 -5 3 7 11 -159 107 -376 217 -482 244
-1056 444 -1582 551 -162 33 -489 85 -532 85 -18 0 -33 3 -33 8 0 4 -46 8
-103 10 -56 2 -103 6 -104 10 -2 4 -37 6 -78 4 -41 -2 -75 0 -75 5 0 4 -72 7
-160 5 -109 -2 -160 0 -160 7 0 6 -18 11 -40 11 -22 0 -40 -5 -40 -11z"/>
<path d="M2990 6160 c0 -5 -22 -10 -48 -10 -166 0 -393 -117 -513 -264 -92
-112 -169 -304 -169 -419 0 -26 -4 -47 -10 -47 -7 0 -10 -635 -10 -1885 0
-1250 3 -1885 10 -1885 6 0 10 -22 10 -48 0 -114 64 -278 155 -399 115 -153
318 -266 503 -280 39 -3 72 -10 72 -14 0 -5 88 -9 195 -9 107 0 195 4 195 9 0
5 22 11 48 13 149 14 296 161 310 309 2 27 8 49 13 49 5 0 9 977 9 2255 0
1278 -4 2255 -9 2255 -5 0 -11 22 -13 48 -14 150 -160 296 -310 310 -26 2 -48
8 -48 13 0 5 -88 9 -195 9 -123 0 -195 -4 -195 -10z"/>
<path d="M9420 6161 c0 -5 -22 -11 -48 -13 -150 -14 -296 -160 -310 -310 -2
-26 -8 -48 -13 -48 -5 0 -9 -977 -9 -2255 0 -1278 4 -2255 9 -2255 5 0 11 -22
13 -49 15 -149 160 -295 310 -309 26 -2 48 -8 48 -13 0 -5 90 -9 200 -9 110 0
200 4 200 9 0 4 31 11 68 14 104 9 271 71 326 122 14 13 27 21 29 18 8 -8 131
119 165 171 81 121 132 265 132 373 0 29 5 53 10 53 7 0 10 633 10 1880 0
1247 -3 1880 -10 1880 -5 0 -10 22 -10 48 0 87 -68 300 -92 286 -4 -3 -5 1 -3
9 12 30 -110 178 -201 243 -120 86 -276 144 -386 144 -26 0 -48 5 -48 10 0 6
-72 10 -195 10 -107 0 -195 -4 -195 -9z"/>
</g>
</svg>
