<?xml version="1.0" standalone="no"?>
<!DOCTYPE svg PUBLIC "-//W3C//DTD SVG 20010904//EN"
 "http://www.w3.org/TR/2001/REC-SVG-20010904/DTD/svg10.dtd">
<svg version="1.0" xmlns="http://www.w3.org/2000/svg"
 width="1280.000000pt" height="1280.000000pt" viewBox="0 0 1280.000000 1280.000000"
 preserveAspectRatio="xMidYMid meet">
<metadata>
Created by potrace 1.16, written by Peter Selinger 2001-2019
</metadata>
<g transform="translate(0.000000,1280.000000) scale(0.100000,-0.100000)"
fill="#49B074" stroke="none">
<path d="M2070 10569 c0 -3 -30 -9 -67 -12 -74 -7 -210 -42 -230 -59 -7 -6
-13 -8 -13 -4 0 10 -113 -44 -188 -90 -42 -27 -69 -50 -66 -56 4 -6 2 -8 -4
-4 -22 14 -220 -184 -206 -206 4 -6 2 -8 -3 -5 -12 7 -29 -10 -35 -32 -2 -8
-11 -22 -20 -32 -52 -55 -134 -268 -151 -396 -6 -45 -14 -83 -17 -83 -3 0 -4
-1341 -2 -2980 l2 -2980 -433 0 -433 0 -52 -26 c-59 -29 -96 -69 -125 -133
-40 -90 -32 -452 13 -631 29 -117 143 -348 168 -343 6 2 9 -4 6 -12 -8 -20
211 -239 231 -231 8 3 14 0 12 -6 -3 -16 142 -98 238 -136 89 -34 213 -62 275
-62 22 0 40 -3 40 -7 0 -8 10767 -6 10792 1 7 3 41 7 75 11 134 13 304 77 438
164 87 56 279 246 271 267 -3 8 -2 13 3 10 23 -15 130 198 167 331 49 175 59
550 17 643 -29 65 -66 105 -125 134 l-52 26 -433 0 -433 0 2 2975 c2 1636 0
2975 -4 2975 -5 0 -8 15 -8 34 0 78 -48 251 -98 351 -28 58 -93 165 -99 165
-2 0 -1 -6 3 -12 4 -8 3 -10 -2 -5 -5 5 -9 13 -9 18 0 33 -196 226 -216 213
-5 -3 -8 -2 -7 3 2 4 0 9 -4 11 -4 1 -19 13 -33 26 -26 24 -178 105 -205 109
-8 2 -20 6 -26 9 -23 15 -163 49 -226 55 -38 3 -68 9 -68 12 0 3 -1948 6
-4330 6 -2381 0 -4330 -3 -4330 -6z m8764 -553 c60 -18 158 -75 204 -119 47
-45 107 -138 132 -203 l21 -56 2 -3004 2 -3004 -4795 0 -4795 0 2 3004 c3
3003 3 3004 23 3059 60 159 193 283 351 327 51 13 512 15 4430 13 3817 -2
4379 -5 4423 -17z m-5757 -7021 c111 -110 134 -125 222 -151 17 -5 2185 -5
2202 0 90 26 113 42 224 152 l116 114 2214 0 2215 0 0 -38 c0 -63 -35 -175
-73 -238 -66 -108 -170 -195 -280 -234 -57 -20 -74 -20 -5517 -20 -5407 0
-5460 0 -5516 19 -31 11 -79 35 -107 53 -29 18 -55 32 -59 30 -5 -1 -7 2 -6 6
4 12 -54 72 -64 66 -5 -3 -7 -2 -6 3 1 4 -13 35 -33 68 -45 77 -68 144 -76
223 l-6 62 2217 0 2216 0 117 -115z"/>
</g>
</svg>
