<?xml version="1.0" standalone="no"?>
<!DOCTYPE svg PUBLIC "-//W3C//DTD SVG 20010904//EN"
 "http://www.w3.org/TR/2001/REC-SVG-20010904/DTD/svg10.dtd">
<svg version="1.0" xmlns="http://www.w3.org/2000/svg"
 width="1280.000000pt" height="1277.000000pt" viewBox="0 0 1280.000000 1277.000000"
 preserveAspectRatio="xMidYMid meet">
<metadata>
Created by potrace 1.16, written by Peter Selinger 2001-2019
</metadata>
<g transform="translate(0.000000,1277.000000) scale(0.100000,-0.100000)"
fill="#49B074" stroke="none">
<path d="M2580 12744 c-111 -36 -285 -126 -370 -190 -94 -71 -151 -125 -144
-136 3 -5 0 -7 -7 -6 -28 7 -257 -301 -242 -325 3 -6 1 -7 -4 -4 -6 4 -13 1
-16 -6 -3 -7 -120 -198 -260 -423 -597 -959 -1021 -1641 -1036 -1666 -9 -14
-45 -73 -81 -130 -36 -56 -69 -111 -75 -120 -5 -9 -49 -81 -97 -160 -134 -220
-188 -352 -226 -552 -15 -80 -17 -167 -17 -751 0 -650 0 -662 23 -767 13 -59
34 -139 47 -179 46 -133 168 -355 188 -342 6 3 7 1 3 -5 -11 -18 126 -168 246
-269 l37 -31 -74 -62 c-128 -107 -251 -264 -329 -419 -21 -40 -35 -80 -32 -88
3 -8 2 -12 -3 -9 -10 6 -21 -19 -50 -114 -50 -159 -53 -202 -58 -800 -7 -800
6 -927 122 -1185 28 -62 104 -195 112 -195 2 0 1 6 -3 13 -4 6 -3 8 1 4 5 -4
10 -14 11 -23 4 -28 87 -125 188 -221 56 -52 102 -103 102 -114 1 -10 -2 -16
-6 -14 -12 8 -123 -90 -190 -168 -201 -230 -306 -483 -330 -789 -12 -156 -13
-1075 0 -1228 24 -309 129 -567 323 -792 72 -85 195 -191 209 -182 6 4 8 3 5
-3 -7 -11 135 -109 164 -115 8 -2 17 -6 20 -11 11 -15 197 -85 280 -106 46
-11 112 -24 146 -27 35 -4 63 -10 63 -13 0 -3 2331 -6 5180 -6 2849 0 5180 3
5180 6 0 3 28 9 63 13 34 3 100 16 146 27 83 21 269 91 280 106 3 5 12 9 20
11 29 6 171 104 164 115 -3 5 -1 7 4 4 14 -9 65 32 57 45 -4 7 -2 8 4 4 20
-12 142 113 239 246 55 75 130 227 167 338 70 211 71 219 71 950 0 588 -2 665
-18 750 -59 314 -221 596 -452 790 l-74 62 57 48 c118 98 250 250 236 271 -4
8 -3 9 4 5 23 -14 142 212 186 353 60 191 61 206 61 921 0 715 -1 730 -61 921
-34 109 -114 280 -127 272 -6 -3 -7 -2 -4 4 8 13 -75 135 -148 218 -30 34 -89
90 -130 125 l-75 63 45 35 c25 19 42 39 38 45 -3 5 -2 7 4 4 10 -7 138 120
187 185 16 21 25 42 20 49 -4 8 -3 9 4 5 23 -14 142 212 186 353 60 191 61
206 61 921 0 715 -1 732 -61 921 -35 111 -101 252 -114 244 -6 -4 -7 1 -3 11
5 13 3 15 -7 9 -9 -5 -11 -4 -6 3 9 16 -4 39 -189 336 -89 144 -295 475 -457
736 -381 613 -374 601 -380 594 -3 -3 -5 1 -5 8 2 16 -395 658 -404 653 -3 -2
-6 2 -6 9 0 21 -137 235 -147 229 -5 -4 -6 -1 -3 4 7 12 -78 152 -153 253
-149 199 -385 369 -630 450 l-88 30 -3743 -1 -3744 0 -75 -25z m7280 -462 c0
-4 15 -6 34 -4 76 9 260 -58 376 -136 24 -17 48 -28 54 -25 5 3 6 2 3 -4 -3
-5 14 -30 40 -54 25 -24 65 -70 88 -101 23 -31 46 -54 50 -50 5 4 5 2 2 -4 -6
-11 97 -187 105 -179 2 3 5 -1 5 -8 1 -20 170 -287 177 -279 4 4 6 2 4 -5 -5
-17 144 -253 155 -246 6 3 7 1 3 -5 -8 -14 95 -182 108 -175 5 4 6 1 2 -5 -8
-13 118 -214 128 -204 4 4 6 2 5 -3 -5 -19 12 -55 23 -49 6 4 8 3 5 -3 -7 -11
27 -66 35 -57 3 3 5 -1 4 -8 -1 -16 296 -498 305 -493 3 2 6 -1 6 -8 0 -7 3
-19 7 -27 6 -13 -575 -15 -5187 -15 l-5192 0 100 161 c55 88 105 169 112 180
7 10 45 71 84 134 288 458 350 561 343 571 -4 7 -3 9 3 6 10 -6 77 98 392 608
87 141 120 186 196 261 79 78 106 98 196 141 109 54 229 88 279 81 17 -3 30
-1 30 4 0 4 1557 8 3460 8 1903 0 3460 -4 3460 -8z m1800 -2684 c106 -32 168
-59 231 -100 35 -23 69 -41 76 -41 7 0 11 -5 10 -11 -1 -6 4 -10 11 -8 6 1 11
-1 10 -5 -2 -5 19 -30 45 -57 57 -58 119 -147 151 -216 13 -27 27 -46 31 -42
5 4 6 2 2 -3 -3 -6 4 -42 16 -80 21 -68 21 -90 25 -705 4 -690 2 -724 -50
-866 -58 -162 -202 -331 -350 -413 -37 -21 -65 -41 -61 -46 5 -4 3 -5 -3 -2
-6 3 -45 -5 -87 -18 -100 -32 -182 -42 -202 -25 -13 11 -14 10 -9 -4 6 -15
-370 -16 -5106 -16 -4865 0 -5112 1 -5105 18 5 14 4 15 -6 5 -18 -18 -64 -16
-155 7 -300 77 -525 314 -589 622 -23 106 -22 1275 1 1386 29 145 102 283 206
392 28 30 51 58 50 63 -1 4 1 6 5 5 5 -2 35 16 68 38 100 69 202 111 320 133
30 5 2090 8 5230 7 4815 -1 5184 -2 5235 -18z m0 -3200 c109 -33 166 -59 245
-110 44 -28 83 -51 88 -50 4 1 6 -2 5 -6 -4 -12 65 -77 77 -73 5 1 7 0 3 -4
-3 -4 11 -30 33 -58 50 -65 112 -192 136 -277 17 -60 18 -119 18 -745 l0 -680
-34 -99 c-73 -211 -228 -385 -424 -477 -79 -36 -218 -72 -263 -67 -19 2 -34 0
-34 -4 0 -4 -2299 -8 -5110 -8 -2811 0 -5110 4 -5110 8 0 4 -15 6 -34 4 -45
-5 -184 31 -263 67 -127 60 -251 166 -324 277 -23 35 -45 64 -49 64 -3 0 -7 6
-8 13 0 6 -18 59 -39 117 l-38 105 0 685 c0 674 1 686 22 755 12 38 19 74 16
80 -4 5 -3 7 1 3 4 -3 25 27 46 68 21 40 52 91 69 112 17 22 28 42 25 45 -3 3
0 8 7 13 8 5 10 3 4 -7 -5 -8 11 6 36 31 24 25 43 48 41 53 -1 4 1 6 5 5 5 -2
35 16 68 38 100 69 202 111 320 133 30 5 2090 8 5230 7 4815 -1 5184 -2 5235
-18z m-48 -3192 c154 -30 298 -103 408 -207 30 -29 59 -51 65 -50 5 1 7 0 4
-4 -4 -3 15 -38 42 -77 59 -86 102 -188 123 -290 22 -108 24 -1266 2 -1380
-33 -169 -101 -294 -231 -423 -74 -74 -107 -99 -185 -138 -103 -51 -242 -91
-296 -85 -19 2 -34 0 -34 -4 0 -4 -2300 -8 -5111 -8 -2810 0 -5108 3 -5106 8
3 4 -18 7 -46 7 -55 1 -112 8 -137 18 -54 22 -131 48 -136 47 -4 -1 -10 2 -13
7 -3 4 -38 30 -78 56 -175 117 -294 296 -338 509 -23 107 -22 1276 1 1386 21
102 64 204 123 290 27 39 46 74 42 77 -3 4 -1 5 4 3 6 -1 30 17 54 41 24 24
38 40 30 36 -8 -5 -11 -4 -6 1 5 5 12 9 15 9 4 0 34 19 67 41 100 69 202 111
320 133 30 5 2101 9 5197 10 4398 1 5157 -1 5220 -13z"/>
<path d="M1906 9091 c-6 -9 -22 -12 -52 -8 -24 2 -44 1 -44 -4 0 -5 -15 -9
-32 -9 -18 0 -61 -7 -96 -15 -110 -26 -300 -124 -286 -147 5 -7 3 -8 -5 -3 -7
4 -22 -2 -37 -16 -20 -18 -22 -25 -11 -38 10 -14 10 -14 -4 -4 -13 11 -19 10
-33 -5 -9 -10 -13 -22 -9 -27 5 -4 3 -5 -4 -1 -17 9 -87 -82 -134 -175 -42
-84 -79 -204 -79 -256 0 -18 -3 -33 -7 -33 -5 0 -8 -31 -8 -70 0 -38 3 -70 6
-70 3 0 9 -24 12 -53 8 -67 47 -180 87 -256 57 -106 213 -272 240 -256 6 4 9
1 8 -6 -4 -15 177 -110 215 -112 15 -1 27 -5 27 -8 0 -13 116 -29 206 -29 163
0 305 43 441 133 75 50 198 171 189 186 -4 5 -1 13 5 17 8 4 9 3 5 -4 -4 -7
-5 -12 -2 -12 14 0 89 147 117 230 65 194 48 414 -46 597 -121 235 -356 405
-595 430 -43 4 -60 10 -62 22 -3 13 -5 13 -12 2z m96 -574 c25 -14 48 -24 52
-22 3 3 4 2 1 -2 -8 -10 26 -43 38 -36 6 3 7 1 3 -5 -4 -6 3 -31 16 -54 30
-58 31 -164 1 -229 -64 -141 -247 -201 -378 -124 -23 13 -46 21 -50 17 -5 -4
-5 -2 -2 4 4 6 -3 20 -15 30 -46 41 -85 162 -57 180 8 4 8 9 0 17 -46 46 64
212 161 245 18 6 67 10 109 8 61 -2 85 -8 121 -29z"/>
<path d="M6597 9066 c-75 -20 -177 -116 -162 -153 2 -8 1 -11 -4 -8 -24 14
-31 -106 -10 -174 23 -78 130 -171 196 -171 12 0 23 -7 27 -15 5 -13 254 -15
2161 -15 1909 0 2155 2 2155 15 0 9 9 15 22 15 67 0 174 93 197 171 21 68 14
188 -10 174 -5 -3 -6 0 -4 8 16 40 -96 139 -175 156 -80 17 -4329 14 -4393 -3z"/>
<path d="M6610 7999 c0 -5 -4 -7 -10 -4 -13 8 -92 -34 -85 -45 3 -5 0 -8 -7
-5 -16 6 -67 -57 -84 -104 -7 -20 -13 -63 -13 -96 -1 -102 50 -184 141 -229
l52 -26 2196 0 2196 0 52 26 c93 46 142 127 142 234 0 108 -53 189 -155 236
l-50 24 -2187 0 c-1533 0 -2188 -3 -2188 -11z"/>
<path d="M1814 5885 c-4 -9 -19 -15 -38 -15 -113 -1 -322 -93 -429 -190 -37
-34 -64 -67 -61 -72 4 -7 2 -8 -4 -4 -14 9 -70 -66 -121 -164 -42 -81 -81
-204 -81 -257 0 -18 -3 -33 -7 -33 -5 0 -8 -31 -8 -70 0 -38 3 -70 6 -70 3 0
9 -24 12 -53 8 -67 47 -180 87 -256 60 -111 212 -273 241 -255 7 4 9 3 6 -3
-13 -21 209 -133 234 -118 5 4 9 2 9 -4 0 -18 135 -34 246 -28 119 5 195 23
282 64 115 53 249 154 235 176 -3 5 -1 7 4 4 14 -9 75 61 67 75 -4 6 -3 8 4 5
26 -17 122 187 148 313 20 99 15 259 -11 355 -42 156 -158 331 -283 425 -114
86 -298 160 -399 160 -23 0 -33 5 -33 15 0 11 -12 15 -50 15 -36 0 -52 -4 -56
-15z m138 -545 c56 -16 117 -68 152 -130 56 -100 38 -237 -44 -318 -58 -58
-105 -77 -195 -76 -88 0 -119 11 -181 67 -60 52 -105 173 -73 193 8 4 8 9 0
17 -46 46 65 214 161 244 44 14 134 15 180 3z"/>
<path d="M6640 5879 c0 -4 -18 -9 -39 -13 -67 -10 -181 -116 -166 -153 2 -8 1
-11 -4 -8 -24 14 -31 -106 -10 -174 23 -78 130 -171 196 -171 12 0 23 -7 27
-15 5 -13 254 -15 2161 -15 1909 0 2155 2 2155 15 0 9 9 15 22 15 67 0 174 93
197 171 21 68 14 188 -10 174 -5 -3 -6 0 -4 8 15 37 -99 143 -166 153 -21 4
-39 9 -39 13 0 3 -972 6 -2160 6 -1188 0 -2160 -3 -2160 -6z"/>
<path d="M6565 4786 c-100 -47 -155 -130 -155 -237 0 -110 56 -196 157 -241
40 -17 120 -18 2245 -16 l2205 3 49 30 c45 28 122 121 109 133 -3 3 0 11 6 18
5 7 10 34 11 61 0 119 -48 195 -157 248 l-50 25 -2185 0 -2185 0 -50 -24z"/>
<path d="M1820 2685 c0 -11 -11 -15 -37 -15 -62 0 -161 -28 -251 -70 -94 -44
-184 -108 -175 -123 3 -6 2 -7 -4 -4 -12 7 -99 -82 -140 -143 -46 -69 -75
-129 -67 -142 4 -7 3 -8 -4 -4 -14 8 -51 -107 -59 -181 -3 -29 -9 -53 -12 -53
-3 0 -6 -31 -6 -70 0 -38 3 -70 6 -70 3 0 9 -24 12 -53 8 -67 47 -180 87 -256
60 -111 212 -273 241 -255 7 4 9 3 6 -4 -14 -22 145 -101 262 -131 156 -39
343 -24 492 38 88 37 171 90 162 104 -3 6 -1 7 5 3 14 -9 94 63 85 77 -3 5 -1
7 4 4 14 -9 75 61 67 75 -4 7 -2 8 4 4 17 -10 87 116 124 224 30 89 32 103 33
235 0 117 -4 153 -23 220 -66 230 -236 424 -451 515 -77 33 -179 60 -228 60
-23 0 -33 5 -33 15 0 11 -12 15 -50 15 -38 0 -50 -4 -50 -15z m182 -568 c25
-14 48 -24 52 -22 3 3 4 2 1 -2 -8 -10 26 -43 38 -36 6 3 7 1 3 -5 -4 -6 3
-31 15 -54 31 -59 32 -165 3 -228 -25 -54 -72 -103 -128 -133 -33 -17 -57 -22
-121 -21 -88 0 -119 11 -181 67 -59 51 -106 173 -74 192 6 4 5 13 -2 24 -32
51 53 183 147 228 70 33 181 29 247 -10z"/>
<path d="M6640 2679 c0 -4 -18 -9 -39 -13 -67 -10 -181 -116 -166 -153 2 -8 1
-11 -4 -8 -24 14 -31 -106 -10 -174 23 -78 130 -171 197 -171 13 0 22 -6 22
-15 0 -13 247 -15 2160 -15 1913 0 2160 2 2160 15 0 9 9 15 22 15 38 0 106 40
146 85 94 106 83 271 -24 365 -41 35 -91 60 -124 60 -11 0 -20 3 -20 8 0 4
-972 7 -2160 7 -1188 0 -2160 -3 -2160 -6z"/>
<path d="M6562 1585 c-30 -14 -51 -29 -47 -35 4 -6 3 -10 -2 -9 -17 3 -36 -1
-31 -6 3 -3 -7 -18 -22 -34 -56 -55 -67 -182 -24 -269 29 -58 69 -96 131 -124
40 -17 120 -18 2245 -16 l2205 3 49 30 c48 30 119 118 109 135 -3 5 -1 11 5
15 13 8 13 109 0 157 -6 20 -23 50 -39 67 -16 17 -27 31 -24 31 13 0 -49 42
-89 60 -42 19 -79 20 -2228 20 l-2185 0 -53 -25z"/>
</g>
</svg>
