<?xml version="1.0" standalone="no"?>
<!DOCTYPE svg PUBLIC "-//W3C//DTD SVG 20010904//EN"
 "http://www.w3.org/TR/2001/REC-SVG-20010904/DTD/svg10.dtd">
<svg version="1.0" xmlns="http://www.w3.org/2000/svg"
 width="1280.000000pt" height="1280.000000pt" viewBox="0 0 1280.000000 1280.000000"
 preserveAspectRatio="xMidYMid meet">
<metadata>
Created by potrace 1.16, written by Peter Selinger 2001-2019
</metadata>
<g transform="translate(0.000000,1280.000000) scale(0.100000,-0.100000)"
fill="#49B074" stroke="none">
<path d="M3400 12791 c0 -4 -39 -11 -87 -14 -131 -9 -340 -69 -311 -89 9 -7 7
-8 -8 -4 -25 8 -87 -21 -78 -36 4 -7 2 -8 -5 -4 -6 4 -39 -10 -74 -30 -78 -47
-291 -258 -283 -280 3 -8 2 -13 -3 -9 -13 7 -54 -62 -45 -76 4 -7 3 -9 -4 -5
-22 13 -106 -196 -134 -334 -20 -100 -19 -10944 1 -11045 27 -137 110 -343
133 -329 7 4 8 3 4 -5 -9 -14 32 -83 45 -76 5 4 6 -1 3 -9 -8 -20 192 -221
268 -269 79 -50 134 -77 142 -70 3 4 6 2 6 -4 0 -14 104 -55 200 -79 73 -18
171 -19 3235 -19 l3160 0 85 23 c94 26 236 90 321 144 118 76 339 317 325 355
-3 8 -2 11 3 8 31 -18 141 303 141 411 0 19 3 34 8 34 4 0 5 2451 2 5447 -5
5013 -7 5453 -22 5513 -35 137 -110 316 -129 305 -5 -3 -6 0 -3 8 8 21 -102
162 -192 247 -85 80 -197 155 -214 145 -6 -4 -9 -1 -8 5 4 16 -133 76 -230
101 -42 11 -116 23 -164 26 -49 3 -88 10 -88 14 0 5 -1350 9 -3000 9 -1650 0
-3000 -4 -3000 -9z m6189 -455 c212 -74 367 -240 421 -452 15 -60 20 -110 20
-223 l0 -146 -3631 0 -3631 0 4 170 c4 139 9 182 26 235 75 227 276 400 510
440 26 4 1431 7 3122 6 l3075 -1 84 -29z m441 -5513 l0 -4268 -3630 0 -3630 0
0 4268 0 4267 3630 0 3630 0 0 -4267z m0 -5265 c0 -647 -1 -657 -72 -798 -73
-145 -214 -266 -369 -315 -38 -12 -66 -25 -63 -28 4 -4 -1403 -7 -3126 -7
-1723 0 -3130 3 -3127 6 3 4 -28 19 -71 33 -204 71 -359 239 -412 447 -19 73
-20 111 -20 656 l0 578 3630 0 3630 0 0 -572z"/>
<path d="M6180 12150 c0 -5 -12 -10 -27 -10 -42 0 -103 -40 -136 -87 -73 -103
-31 -250 87 -304 36 -17 69 -19 293 -19 153 0 263 4 280 11 41 15 93 52 93 67
0 6 4 12 9 12 5 0 17 20 26 45 24 60 16 132 -19 185 -29 44 -83 83 -104 75 -7
-3 -10 0 -7 5 4 6 -7 10 -24 10 -17 0 -31 5 -31 10 0 6 -80 10 -220 10 -140 0
-220 -4 -220 -10z"/>
<path d="M6390 1910 c0 -5 -19 -10 -43 -10 -49 0 -154 -25 -174 -42 -7 -6 -13
-8 -13 -4 0 10 -81 -34 -136 -75 -144 -106 -254 -303 -254 -455 0 -24 -5 -45
-12 -48 -10 -5 -10 -7 0 -12 7 -3 12 -24 12 -48 0 -58 25 -149 61 -223 37 -77
106 -166 121 -157 6 4 8 3 4 -4 -3 -6 15 -29 41 -51 89 -76 250 -141 349 -141
24 0 45 -5 48 -12 5 -10 7 -10 12 0 3 7 24 12 48 12 45 0 153 25 170 40 6 4
15 8 19 8 31 0 133 68 198 132 66 66 137 167 143 203 1 7 5 17 9 23 14 23 37
129 37 170 0 24 5 45 13 48 10 5 10 7 0 12 -8 3 -13 24 -13 48 0 41 -23 147
-37 170 -4 6 -8 16 -9 23 -6 36 -77 137 -144 204 -108 108 -262 179 -387 179
-24 0 -43 5 -43 10 0 6 -4 10 -10 10 -5 0 -10 -4 -10 -10z m109 -445 c15 -7
44 -32 64 -54 74 -82 75 -199 2 -280 -19 -21 -34 -40 -32 -42 1 -2 0 -3 -2 -2
-2 1 -18 -5 -35 -14 -41 -22 -151 -22 -191 -1 -33 18 -87 72 -103 103 -18 36
-24 110 -12 155 14 54 81 126 135 146 46 16 131 12 174 -11z"/>
</g>
</svg>
