<?xml version="1.0" standalone="no"?>
<!DOCTYPE svg PUBLIC "-//W3C//DTD SVG 20010904//EN"
 "http://www.w3.org/TR/2001/REC-SVG-20010904/DTD/svg10.dtd">
<svg version="1.0" xmlns="http://www.w3.org/2000/svg"
 width="1280.000000pt" height="1280.000000pt" viewBox="0 0 1280.000000 1280.000000"
 preserveAspectRatio="xMidYMid meet">
<metadata>
Created by potrace 1.16, written by Peter Selinger 2001-2019
</metadata>
<g transform="translate(0.000000,1280.000000) scale(0.100000,-0.100000)"
fill="#49B074" stroke="none">
<path d="M305 10940 c-4 -6 -11 -8 -16 -4 -17 10 -118 -44 -169 -92 -60 -56
-96 -126 -110 -214 -14 -92 -14 -6930 1 -7020 5 -36 19 -84 29 -107 29 -66
111 -146 183 -179 l62 -29 2398 -3 2397 -2 0 -350 0 -350 -534 0 c-493 0 -539
-1 -594 -19 -243 -75 -338 -369 -187 -574 44 -60 140 -122 208 -137 38 -8 721
-10 2457 -8 l2405 3 60 29 c170 84 253 274 195 446 -41 121 -124 205 -241 241
-57 18 -98 19 -595 19 l-534 0 0 350 0 350 2390 0 c1535 0 2390 3 2390 10 0 5
6 7 14 4 15 -6 109 38 138 63 10 9 15 20 11 26 -3 5 -1 7 4 4 14 -9 64 49 91
104 12 24 26 73 31 109 15 91 15 6929 0 7020 -5 36 -19 85 -31 109 -27 55 -77
113 -91 104 -5 -3 -7 -1 -4 4 4 6 -1 17 -11 26 -29 25 -123 69 -138 63 -7 -3
-16 -1 -19 4 -9 14 -12182 13 -12190 0z m11745 -3820 l0 -3090 -5650 0 -5650
0 0 3090 0 3090 5650 0 5650 0 0 -3090z m-5070 -4180 l0 -350 -580 0 -580 0 0
350 0 350 580 0 580 0 0 -350z"/>
</g>
</svg>
